<svg xmlns="http://www.w3.org/2000/svg" xmlns:xlink="http://www.w3.org/1999/xlink" width="278.502" height="104.713" viewBox="0 0 278.502 104.713"><defs><clipPath id="a"><rect width="67.309" height="78.357" fill="none"/></clipPath><clipPath id="c"><rect width="23.481" height="8.509" fill="none"/></clipPath><clipPath id="d"><rect width="21.046" height="15.487" fill="none"/></clipPath><clipPath id="e"><rect width="30.446" height="20.311" fill="none"/></clipPath><clipPath id="f"><rect width="4.452" height="1.166" fill="none"/></clipPath><clipPath id="g"><rect width="61.475" height="22.575" fill="none"/></clipPath><clipPath id="h"><rect width="63.985" height="32.324" fill="none"/></clipPath><clipPath id="i"><rect width="10.023" height="9.468" fill="none"/></clipPath><clipPath id="j"><rect width="5.976" height="9.174" fill="none"/></clipPath><clipPath id="k"><rect width="8.13" height="3.777" fill="none"/></clipPath><clipPath id="l"><rect width="4.268" height="3.117" fill="none"/></clipPath><clipPath id="m"><rect width="6.259" height="5.471" fill="none"/></clipPath><clipPath id="n"><rect width="0.949" height="3.515" fill="none"/></clipPath><clipPath id="o"><rect width="6.252" height="2.397" fill="none"/></clipPath><clipPath id="p"><rect width="63.985" height="1.524" fill="none"/></clipPath></defs><g transform="translate(-44 -843)"><path d="M6.182-14.082,4.9-12.861a15.92,15.92,0,0,0-3.145-2.578L2.979-16.7A18.418,18.418,0,0,1,6.182-14.082ZM18.818-2.842H13.76v1.6h-1.8v-1.6H6.816V-4.355h5.146V-5.361H7.617V-6.777h4.346V-7.822H7.217V-9.3H9.863a12.03,12.03,0,0,0-.723-1.523H6.924v-1.5h5.02V-13.6H7.383v-1.475h4.561v-1.357H13.7v1.357h4.414V-13.6H13.7v1.279h5.078v1.5H16.621a14.112,14.112,0,0,1-.7,1.523H18.4v1.475H13.76v1.045h4.258v1.416H13.76v1.006h5.059ZM14.756-10.82H10.977A14.926,14.926,0,0,1,11.66-9.3H14.1A14.293,14.293,0,0,0,14.756-10.82Zm4.121,9.9-.6,1.641q-3.447.059-7.119.059Q6.621.781,4.541-1.24A19.783,19.783,0,0,1,2.6,1.221L1.182.078A12.769,12.769,0,0,0,4.541-5.664H1.621v-1.68A22.485,22.485,0,0,0,4.2-10.8H1.3v-1.582h5V-10.8a33.047,33.047,0,0,1-2.48,3.525H6.4v1.611A27.171,27.171,0,0,1,5.3-2.7,4.778,4.778,0,0,0,7.056-1.475a7.762,7.762,0,0,0,2.188.547q1.147.117,4.116.117Q16.084-.811,18.877-.918Zm20-1.9q-.488,3.965-2.314,3.965-1.855,0-3.242-3.662A27.842,27.842,0,0,1,28.857,1.26L27.617-.059A22.14,22.14,0,0,0,32.7-4.336,37.812,37.812,0,0,1,31.543-11.6H24.736v2.178H30.02q-.1,2.461-.229,3.853t-.229,2.109a2.665,2.665,0,0,1-.5,1.26,1.683,1.683,0,0,1-.991.674,7.106,7.106,0,0,1-1.514.132q-.469,0-.977-.039l-.5-1.66q.605.029,1.035.029,1.416,0,1.6-.317a6.244,6.244,0,0,0,.327-1.792q.146-1.475.166-2.5H24.678q-.146,5.732-2.139,8.9l-1.377-1.3q1.8-3,1.8-8.965V-13.3h8.457q-.068-1.6-.039-3.184h1.807q-.029.5-.029,1.045,0,.947.088,2.139h5.234v1.7H33.34a30.353,30.353,0,0,0,.742,5.479A20.616,20.616,0,0,0,36.2-10.576L37.8-10a22.3,22.3,0,0,1-3.145,5.918,10.345,10.345,0,0,0,.854,2.114,4.827,4.827,0,0,0,.649,1.025.512.512,0,0,0,.293.093.358.358,0,0,0,.278-.112,3.414,3.414,0,0,0,.288-.981,11.321,11.321,0,0,0,.234-1.7ZM37.92-14.8l-1,1.289A12.5,12.5,0,0,0,34.063-15l1-1.338A11.637,11.637,0,0,1,37.92-14.8ZM50.342-4.863a82.269,82.269,0,0,1-8.359,5l-.7-1.7q.605-.3,1.523-.82V-16.465h1.855V-3.437A50.778,50.778,0,0,0,49.98-6.816ZM59.023-.137,57.578,1.1a37.615,37.615,0,0,0-3.7-4.326,20.787,20.787,0,0,1-5.537,4.4L47.158-.361Q52.793-3.311,54.1-7.373A29.428,29.428,0,0,0,55.4-16.4h1.836q-.244,7.705-2.256,11.68A47.617,47.617,0,0,1,59.023-.137Zm-6.68-9.785-1.582.986A34.028,34.028,0,0,0,47-14.58l1.514-1A32.535,32.535,0,0,1,52.344-9.922ZM78.74.518H61.3v-1.8h7.178V-16.465h1.865v6.006h7.539V-8.7H70.342v7.422h8.4ZM98.965-8.838l-.684,1.582a15.528,15.528,0,0,1-4.863-1.787A14.163,14.163,0,0,1,88.9-7.236L88.1-8.76A14.166,14.166,0,0,0,91.855-10a14.288,14.288,0,0,1-1.592-1.523l1.318-.918A9.105,9.105,0,0,0,93.3-10.957a8.206,8.206,0,0,0,2.021-2.461H91.2a11.512,11.512,0,0,1-1.924,2.461L88.1-12.1a15.317,15.317,0,0,0,2.92-4.58l1.543.459a5.6,5.6,0,0,1-.518,1.162H98.5v1.641H97.08a10.211,10.211,0,0,1-2.275,3.3A12.625,12.625,0,0,0,98.965-8.838Zm-12.9-7.3L84.883-12.5V1.084H83.2V-8.8a17.706,17.706,0,0,1-1.24,1.943L81.1-8.8a26.888,26.888,0,0,0,3.3-7.8ZM87.7-1.758h-1.66V-13.9H87.7ZM98.535-4.8H94.2V1.084H92.4V-4.8H88.457V-6.5H92.4V-7.92h1.8V-6.5h4.336ZM98.74-.156,97.256.723a24.1,24.1,0,0,0-2.6-4.082l1.357-.9A21.369,21.369,0,0,1,98.74-.156Zm-6.855-3.3A16.214,16.214,0,0,1,88.9.723L87.48-.264a16.259,16.259,0,0,0,2.9-3.916ZM106.9-16.182q-.352,1.074-1.035,2.646L105.176-12V1H103.34V-8.779q-.518.693-1.279,1.582l-.937-2.021a23.378,23.378,0,0,0,3.936-7.344ZM118.74-4.922h-5.176V1.064h-1.807V-4.922h-5.674V-6.641h5.674v-4.443H109a19.2,19.2,0,0,1-1.7,3.242q-.537-.342-1.543-1.123a22.829,22.829,0,0,0,2.822-6.914l1.855.342q-.244.938-.8,2.754h2.119v-3.633h1.807v3.633h4.756v1.7h-4.756v4.443h5.176Zm10.742-.557a1.225,1.225,0,0,1-.811-1.25,1.125,1.125,0,0,1,.415-.9A1.381,1.381,0,0,1,130-7.979a1.18,1.18,0,0,1,.928.41,1.481,1.481,0,0,1,.361,1.016q0,1.123-1.719,2.432l-.605-.469A5.172,5.172,0,0,0,129.482-5.479ZM10.322,26.561l-1.562.615a20.073,20.073,0,0,0-.742-2.031Q4.785,26.531,2.139,27.4l-.615-1.6a.876.876,0,0,0,.459-.762V10.857H9.5v9.326H3.779v4.834q1.68-.586,3.584-1.377a11.5,11.5,0,0,0-1.025-2.021l1.543-.654A26.345,26.345,0,0,1,10.322,26.561ZM7.744,14.617V12.5H3.779v2.119Zm0,3.906V16.238H3.779v2.285Zm10.6,5.42a2.025,2.025,0,0,1-.669,1.812,4.348,4.348,0,0,1-2.261.435q-.605,0-1.289-.029l-.5-1.8q1.211.059,2.441.059a.454.454,0,0,0,.342-.176.574.574,0,0,0,.156-.391V12.615H13.076v15.4H11.318V10.877H18.34Zm20.4-11.328H36.9V26.141a1.787,1.787,0,0,1-.464,1.328,1.684,1.684,0,0,1-1.1.5q-.635.044-3.926.044l-.6-1.875q1.318.078,2.5.078a12.5,12.5,0,0,0,1.333-.034.5.5,0,0,0,.278-.2.55.55,0,0,0,.127-.347V12.615h-13.7V10.838H38.74Zm-6.68,11.1H23.242v-8.5h8.818ZM30.244,21.98v-5.02H25.059v5.02Zm16.7-11.064a23.911,23.911,0,0,1-1.68,3.223,19.857,19.857,0,0,1,1.2,7.539q0,4.111-.542,5.229t-2.642,1.118a7.979,7.979,0,0,1-.918-.049l-.547-1.738q.879.088,1.572.088a1.108,1.108,0,0,0,1.1-.513,11.543,11.543,0,0,0,.254-3.325q0-1.084-.068-2.3a15.858,15.858,0,0,1-2.617,3.438l-.9-1.5a15.2,15.2,0,0,0,3.34-4.561,11.563,11.563,0,0,0-.381-1.738A14.179,14.179,0,0,1,42.08,17.84l-.879-1.5A11.781,11.781,0,0,0,43.34,14a12.552,12.552,0,0,0-2.08-2.617l1.3-1.006a10.337,10.337,0,0,1,1.758,2.041,16.349,16.349,0,0,0,.986-2Zm11.8,1.846H55.615v.781H53.9V10.535h1.719v.8H58.74Zm-6.8-2.227v3.008h-1.7v-.781h-3.2V11.336h3.2v-.8ZM58.779,21.6H47.861V18.182a5.331,5.331,0,0,1-.723.7l-.762-1.6a17.122,17.122,0,0,0,2.588-3.818l1.553.5a2.091,2.091,0,0,1-.254.557h2.119A2.822,2.822,0,0,0,52,13.855l1.6-.537a10.413,10.413,0,0,1,.654,1.2h4.2v1.318h-4.2v.684h3.926V17.7H54.258v.713h3.926v1.162H54.258v.742h4.521Zm-6.2-5.078v-.684H49.6v.684Zm0,1.895V17.7H49.6v.713Zm0,1.9v-.742H49.6v.742Zm6.563,6.26L58.4,28.123A22.4,22.4,0,0,1,52.822,26.8a39.366,39.366,0,0,1-5.781,1.377L46.3,26.658a22.816,22.816,0,0,0,4.521-.84,8.639,8.639,0,0,1-2.441-2.061H47.52V22.381h10.7v1.377A13.383,13.383,0,0,1,55.1,25.877,23.813,23.813,0,0,0,59.141,26.58ZM55.7,23.758H50.479a10.656,10.656,0,0,0,2.441,1.426A11.191,11.191,0,0,0,55.7,23.758ZM66.9,11.336a17.284,17.284,0,0,1-4.824,4.521L61.2,14.275a14.5,14.5,0,0,0,4.238-3.857ZM77.52,17.1H67.6v-6.26H77.52ZM75.8,13.221v-.859H69.355v.859Zm0,2.314v-.879H69.355v.879Zm-8.74-.234a18.556,18.556,0,0,1-1.484,2.52V27.957H63.8V20.184a17.377,17.377,0,0,1-1.641,1.494L61.3,20.057A19.1,19.1,0,0,0,65.6,14.6Zm11.777,7.158H76.523v3.662q0,1.826-2.422,1.826-.645,0-1.377-.049l-.508-1.621q.85.049,1.465.049a1.7,1.7,0,0,0,.928-.166.613.613,0,0,0,.215-.518V22.459H66.4v-1.6h8.428V19.676H66.836V18.1h11.5v1.572H76.523v1.182h2.314Zm-6.8,2.6-1.26,1.24a14.3,14.3,0,0,0-2.822-2.373L69.1,22.7A13.288,13.288,0,0,1,72.041,25.057Zm26.24,2.92H96.543v-.9H89.717v.9H87.979V13.582h4.277V10.564H94v3.018h4.277Zm-1.738-8.613v-4.1H94v4.1Zm-4.287,0v-4.1H89.717v4.1Zm4.287,5.977V21.023H94V25.34Zm-4.287,0V21.023H89.717V25.34Zm-4.893-5.459-1.963.762v5.293a1.813,1.813,0,0,1-2.021,2.08q-1.016,0-1.416-.039L81.484,26.2l1.758-.02a.421.421,0,0,0,.288-.156.448.448,0,0,0,.151-.3V21.258q-.723.244-2.08.586l-.4-1.68q1.035-.225,2.48-.684V15.418h-2.3v-1.68h2.3V10.564H85.4v3.174h1.963v1.68H85.4v3.438a17.64,17.64,0,0,0,1.816-.674ZM117.939,11.6l-.117,1.357q-2.939,2.529-9.2,3.428l-.781-1.328a21.18,21.18,0,0,0,4.854-.937,17.584,17.584,0,0,0-2.236-1.3q-1.309.488-2.139.7l-.762-1.348a11.986,11.986,0,0,0,4.4-1.777l1.934.361a1.862,1.862,0,0,1-.5.439Zm-2.217,1.1-3.486-.322a15.047,15.047,0,0,1,1.963,1.162A6.4,6.4,0,0,0,115.723,12.7Zm-8.3,8.154h-1.7V17.479h-1.367q-.479,2.627-1.572,3.438l-1.318-.937a5.341,5.341,0,0,0,1.191-2.5h-1.074V15.916h4.141V14.5h-3.34V11.063h1.66v1.914h1.68V10.584h1.7Zm3.555-6.621q-1.885.3-2.08.322l-.2-.82q1.23-.146,2.178-.342Zm7.842,3.74h-1.68v1.26a1.32,1.32,0,0,1-.527,1.167,3.184,3.184,0,0,1-1.758.366q-.4,0-.752-.029l-.566-1.465,1.523-.039a.3.3,0,0,0,.342-.332v-.928h-4.9a18.682,18.682,0,0,1,2.344,1.5L111.758,20.6a14.36,14.36,0,0,0-2.559-1.582l1.064-1.045h-2.227V16.561H115.4V15.4h1.738v1.162h1.68Zm-.137,3.066-.859,1.094a6.883,6.883,0,0,0-1.641-.654l.859-1.045A8.067,8.067,0,0,1,118.682,21.043Zm.361,5.42-.7,1.68q-5.732-.605-8.164-4.238-2.422,3.5-8.076,4.238l-.879-1.7a11.177,11.177,0,0,0,6.816-2.627H101.68V22.244h7.441a14.317,14.317,0,0,0,.3-1.641l1.777.117a5.228,5.228,0,0,1-.3,1.523h7.686v1.572H112.3A11.05,11.05,0,0,0,119.043,26.463Zm12.6-7.3-1.26.322a5.542,5.542,0,0,0-.186-1.064q-1.65.283-3.037.42l-.42-1.416a18.42,18.42,0,0,0,1.641-2.139q-.908.078-1.455.078L126.6,14.08a10.647,10.647,0,0,0,1.641-3.564l1.533.488A15.641,15.641,0,0,1,128.34,13.8a3.638,3.638,0,0,0,.957-.078q.2-.322.664-1.318l1.357.723a20.453,20.453,0,0,1-2.861,4.18,10.776,10.776,0,0,0,1.406-.166,3.035,3.035,0,0,0-.264-.84l1.2-.42A18.078,18.078,0,0,1,131.641,19.158Zm7.324,5.566q-.537,3.486-2.187,3.486-1.152,0-2.637-2.09a21.249,21.249,0,0,1-3.945,2.061l-.977-1.5a16.517,16.517,0,0,0,4.082-2.061,13.926,13.926,0,0,1-.937-3.018H129.5l-.02.479A20.857,20.857,0,0,1,132,24l-1.084,1.4a11.472,11.472,0,0,0-1.641-1.455,9.153,9.153,0,0,1-2.256,4.316l-1.445-.977a7.724,7.724,0,0,0,2.207-5.684h-1.7V19.959h5.977q-.42-3.447-.557-9.443h1.66a85.318,85.318,0,0,0,.557,9.443H134.9a1.522,1.522,0,0,0-.322-.615l1.855-.381q.215.342.547,1h1.738V21.6h-4.658a8.156,8.156,0,0,0,.557,1.9,9.2,9.2,0,0,0,1.4-1.68l1.523.771a12.307,12.307,0,0,1-2.119,2.461q.9,1.24,1.191,1.24.547,0,.752-2.5Zm-12.148-5.8-1.035.977a13.42,13.42,0,0,0-.762-1.523v9.707h-1.68V19.256a15.878,15.878,0,0,1-1.436,3.828l-.781-2.1a22.017,22.017,0,0,0,1.895-5.381h-1.7v-1.68h2.021V10.516h1.68v3.408h1.318V15.6H125.02v.313A16.872,16.872,0,0,1,126.816,18.924Zm11.943.137-1.221.4-.2-1.123q-1.748.244-3.125.4l-.459-1.4A13.048,13.048,0,0,0,135.4,15.32q-.762.117-1.5.2l-.254-1.436a14.486,14.486,0,0,0,1.836-3.545l1.484.547a16.3,16.3,0,0,1-1.66,2.939,7.156,7.156,0,0,0,1.035-.137q.488-.82.762-1.367l1.416.547a22.027,22.027,0,0,1-2.852,4.16q.42-.02,1.3-.146a3.492,3.492,0,0,0-.244-.723l1.221-.391A14.436,14.436,0,0,1,138.76,19.061Zm20.322-5.02-.7,1.582a35.08,35.08,0,0,1-4.961-1.641v.742h-6.533v-.781a33.46,33.46,0,0,1-4.9,1.719l-.879-1.445q5.908-1.523,8.721-3.9l1.953.479a2.621,2.621,0,0,1-.361.381A24.742,24.742,0,0,0,159.082,14.041Zm-7.061-.7q-1.611-.9-1.963-1.113a10.8,10.8,0,0,1-1.875,1.113Zm5.234,7.363H142.979V15.535h14.277ZM155.5,19.3V16.961h-4.521V19.3Zm-.762-1.406a12.989,12.989,0,0,1-1.68,1.162l-1.24-.84q1.172-.742,1.641-1.084ZM149.219,19.3V16.961h-4.5V19.3Zm-.879-.986-1.26.8a13.983,13.983,0,0,0-1.66-1.182l1.24-.84A12.336,12.336,0,0,1,148.34,18.318Zm8.057,9.658h-1.758v-.713h-8.955v.713h-1.826v-6.4H156.4Zm-1.758-4.219v-.82h-8.955v.82Zm0,2.119V25h-8.955v.879Zm16.5-13.994L170.879,22.6h-1.816L168.8,11.883ZM170,24.539a1.4,1.4,0,0,1,1,.4,1.311,1.311,0,0,1,.01,1.914,1.394,1.394,0,0,1-1.006.4,1.409,1.409,0,0,1-1.011-.386A1.339,1.339,0,0,1,169,24.93,1.408,1.408,0,0,1,170,24.539Z" transform="matrix(0.996, -0.087, 0.087, 0.996, 149.275, 883.52)" fill="#ff7070"/><g transform="translate(44 843)"><path d="M535.242,869.6l20.8-14.6,1.391,2.782Z" transform="translate(-461.534 -844.79)" fill="#88e8f2"/><g transform="translate(0 0)"><g transform="translate(0 0)"><g clip-path="url(#a)"><g clip-path="url(#a)"><path d="M44.025,137.953l2.045-1.912-8.777-10.824s-6.277-1.009-9.194,2.069a43.743,43.743,0,0,0-4.048,5.36c-.462.7-2.445,3.741-1.958,5.306Z" transform="translate(-16.182 -91.92)" fill="#f9e27d"/><path d="M45.615,150.116,47.66,148.2l-2.3-2.841c-7.079-3.979-12.515-4.345-15.459-3.168-2.56,1.023-5,6.275-5.718,7.921Z" transform="translate(-17.772 -104.084)" fill="#f49b58"/><g transform="translate(6.407 37.523)" opacity="0.2" style="mix-blend-mode:multiply;isolation:isolate"><g clip-path="url(#c)"><path d="M24.742,150.116c.841-1.846,3.079-6.047,6.149-6.375,3.477-.37,9.793,1.518,13.884,6.375h.84L47.66,148.2l-2.3-2.841c-7.079-3.979-12.515-4.345-15.459-3.168-2.56,1.023-5,6.275-5.718,7.921Z" transform="translate(-24.179 -141.607)" fill="#f49b58"/></g></g><path d="M175.807,100.249s4.663-4.321,8.8-3.378a43.7,43.7,0,0,1,6.341,2.214c.864.363,4.954,2.118,4.608,3.9s-4.5,13.6-16.792,11.84l-4.254-.7Z" transform="translate(-128.266 -71.103)" fill="#f9e27d"/><path d="M178.762,121.661l-4.254-.7.341-3.642c3.683-7.238,8-10.557,11.106-11.211,3.208-.676,9.6,3.716,9.6,3.716-.347,1.783-4.5,13.6-16.792,11.84" transform="translate(-128.266 -77.938)" fill="#f49b58"/><g transform="translate(46.242 28.097)" opacity="0.2" style="mix-blend-mode:multiply;isolation:isolate"><g clip-path="url(#d)"><path d="M185.955,106.106c3.208-.676,9.6,3.716,9.6,3.716-.025.127-.07.307-.135.529,0,0-5.92-4.244-9.434-2.406-3.191,1.669-7.561,7-8.072,13.578l-3.406-.563.341-3.642c3.683-7.238,8-10.557,11.106-11.211" transform="translate(-174.508 -106.035)" fill="#f49b58"/></g></g><path d="M106.189,110.036c-.081-.221-.165-.445-.255-.673-1.871-4.739,1.833-22.286-16.833-22.286H88.65c-19.836,0-14.895,17.574-16.833,22.286-.094.228-.182.452-.266.673Z" transform="translate(-52.591 -64.004)" fill="#f9e27d"/><g transform="translate(20.86 23.074)" opacity="0.4" style="mix-blend-mode:multiply;isolation:isolate"><g clip-path="url(#e)"><path d="M94.374,87.078h-.452c-10.083,0-13.762,4.541-15.2,9.625a9.684,9.684,0,0,1,7.266-3.656c7.053,0,7.054,14.342,7.054,14.342h1.8s0-14.342,7.054-14.342a9.685,9.685,0,0,1,7.266,3.656l0,0c-1.6-5.083-5.3-9.622-14.8-9.622" transform="translate(-78.723 -87.078)" fill="#f9e27d"/></g></g><path d="M128.17,162.585c-.27-.108-.546-.208-.83-.3a4.356,4.356,0,0,0-8.632.111c-.167.058-.329.123-.49.187Z" transform="translate(-86.892 -116.552)" fill="#f9ecb3"/><path d="M85.317,166.377a2.091,2.091,0,1,0-4.027,0Z" transform="translate(-59.693 -120.344)" fill="#f49b58"/><path d="M92.148,138.61a20.672,20.672,0,0,1-.194,5.572s-7.239,1.432-8.21-1.732c-.864-2.814.362-6.663,3.044-7.53a4.223,4.223,0,0,1,5.361,3.691" transform="translate(-61.352 -99.029)" fill="#f9ecae"/><path d="M93.019,147.869c.5-6.266-1.484-7.9-3.362-8.1-2.283-.254-4.436,2.259-4.69,4.542-.375,3.378,1.471,3.634,3.759,3.837a19.455,19.455,0,0,0,4.293-.275" transform="translate(-62.417 -102.716)" fill="#fff"/><path d="M94.484,140.48a4.445,4.445,0,0,0-4.053,4.63,5.029,5.029,0,0,0,.28,1.649l.534-.167a.4.4,0,1,1,.24.768l-.45.141a4.6,4.6,0,0,0,.819,1.085c.3.039.606.068.925.1a19.467,19.467,0,0,0,4.293-.275c.434-5.4-.984-7.358-2.587-7.928" transform="translate(-66.468 -103.255)" fill="#714d25"/><path d="M180.833,166.377a2.09,2.09,0,1,0-4.027,0Z" transform="translate(-129.899 -120.344)" fill="#f49b58"/><path d="M157.152,138.61a20.674,20.674,0,0,0,.194,5.572s7.239,1.432,8.21-1.732c.864-2.814-.362-6.663-3.044-7.53a4.223,4.223,0,0,0-5.361,3.691" transform="translate(-115.417 -99.029)" fill="#f9ecae"/><path d="M158.012,147.869c-.5-6.266,1.484-7.9,3.362-8.1,2.283-.254,4.436,2.259,4.69,4.542.375,3.378-1.471,3.634-3.759,3.837a19.455,19.455,0,0,1-4.293-.275" transform="translate(-116.084 -102.716)" fill="#fff"/><path d="M163.6,147.361a.4.4,0,1,1,.24-.768l.534.167a5.024,5.024,0,0,0,.28-1.649,4.445,4.445,0,0,0-4.053-4.63c-1.6.57-3.021,2.525-2.587,7.928a19.466,19.466,0,0,0,4.293.275c.319-.028.628-.058.925-.1a4.612,4.612,0,0,0,.819-1.085Z" transform="translate(-116.084 -103.255)" fill="#714d25"/><path d="M130.288,169.021c-.354-.968-1.822-1.693-3.58-1.693s-3.226.726-3.58,1.693Z" transform="translate(-90.501 -122.989)" fill="#714d25"/><g transform="translate(34.001 44.522)" opacity="0.2"><g clip-path="url(#f)"><path d="M132.767,168.7c0,.266-1,.481-2.226.481s-2.226-.215-2.226-.481,1-.685,2.226-.685,2.226.42,2.226.685" transform="translate(-128.315 -168.017)" fill="#fff"/></g></g><g transform="translate(5.834 23.074)" opacity="0.2" style="mix-blend-mode:multiply;isolation:isolate"><g clip-path="url(#g)"><path d="M83.335,96.415l0-.007c.015-.051.029-.1.041-.146l0-.01c.012-.044.023-.085.033-.125l.005-.019.023-.1.006-.025c.007-.031.013-.06.018-.087l0-.013h0c.347-1.783-3.743-3.539-4.608-3.9a43.748,43.748,0,0,0-6.342-2.214c-2.736-.624-5.7,1.056-7.4,2.265-.039-.05-.081-.1-.121-.149l-.094-.116c-.076-.092-.154-.182-.233-.272l-.1-.118c-.079-.087-.16-.173-.242-.258L64.211,91c-.082-.082-.166-.163-.25-.243-.043-.041-.086-.082-.129-.122-.085-.078-.172-.154-.259-.229-.047-.041-.094-.082-.142-.122-.087-.073-.178-.144-.268-.215-.052-.041-.1-.082-.156-.122-.09-.068-.184-.135-.277-.2-.056-.04-.112-.081-.169-.12-.094-.064-.19-.126-.286-.188-.061-.039-.121-.079-.184-.118-.1-.06-.2-.117-.3-.175-.066-.038-.131-.077-.2-.115-.1-.055-.2-.109-.306-.162-.071-.037-.141-.074-.213-.11-.1-.051-.21-.1-.316-.149-.076-.035-.15-.071-.228-.1-.107-.047-.218-.092-.328-.137-.081-.033-.16-.067-.242-.1-.111-.043-.226-.084-.34-.125-.085-.031-.169-.063-.257-.092-.115-.039-.234-.075-.352-.112-.091-.028-.179-.058-.272-.085-.12-.035-.244-.067-.367-.1-.095-.025-.188-.052-.284-.076-.125-.031-.255-.059-.383-.088-.1-.022-.2-.046-.3-.067-.131-.027-.266-.051-.4-.076-.1-.019-.2-.04-.31-.058-.137-.023-.278-.042-.418-.063-.107-.016-.212-.033-.321-.047-.146-.019-.3-.034-.447-.051-.108-.012-.213-.026-.323-.036-.16-.015-.325-.027-.489-.039-.1-.008-.206-.018-.312-.024-.187-.012-.38-.019-.573-.027-.087,0-.172-.009-.26-.012q-.425-.013-.866-.013H52.24q-.469,0-.919.013c-.1,0-.2.009-.3.013-.2.008-.394.015-.586.026-.113.007-.222.017-.334.025-.172.012-.346.024-.514.039-.115.01-.226.024-.339.036-.159.017-.319.032-.474.051-.113.014-.222.031-.333.047-.15.021-.3.041-.447.064-.109.017-.214.038-.321.057-.143.025-.287.049-.426.077-.105.021-.206.045-.31.067-.136.029-.272.057-.4.089-.1.024-.2.051-.3.076-.129.033-.259.065-.385.1-.1.027-.188.056-.281.084-.124.037-.25.074-.371.113-.09.029-.176.06-.264.091-.12.042-.241.082-.357.126-.085.032-.166.065-.249.1-.115.046-.231.091-.343.138-.079.034-.156.069-.233.1-.111.05-.223.1-.33.151-.074.036-.145.073-.218.109-.107.054-.214.108-.318.163-.069.037-.135.076-.2.113-.1.058-.207.117-.307.177-.063.038-.124.077-.186.116-.1.063-.2.125-.3.19-.058.039-.114.079-.171.119-.1.067-.192.134-.285.2-.053.039-.1.08-.157.12-.093.072-.185.143-.275.217-.049.04-.1.081-.143.121-.089.076-.178.152-.264.23-.044.04-.087.081-.13.121-.086.081-.171.162-.254.244-.04.04-.078.08-.117.12-.083.086-.165.171-.245.259l-.1.117c-.08.091-.159.182-.235.274-.031.038-.061.076-.092.114-.077.1-.153.192-.226.289l-.08.109c-.074.1-.147.2-.217.3l-.07.1q-.106.159-.207.321l-.059.1q-.1.168-.2.338l-.05.089q-.1.176-.19.354l-.04.079q-.093.184-.181.372l-.032.069c-.06.129-.117.259-.173.39l-.024.058q-.085.2-.164.408l-.017.045q-.081.213-.156.428l-.01.03q-.077.223-.148.448l-.005.016q-.073.233-.139.467-.077.272-.146.546c-1.42-.16-6.32-.494-8.8,2.121a43.688,43.688,0,0,0-4.048,5.36c-.427.644-2.151,3.289-2.029,4.923,10.537-1.539,49.677-7.244,58.989-8.411l.053-.077c.311-.47.589-.936.835-1.385q.074-.135.144-.267A17.536,17.536,0,0,0,83.335,96.415Z" transform="translate(-22.015 -87.077)" fill="#c98844"/></g></g><rect width="63.985" height="32.325" transform="translate(3.216 46.032)" fill="#f9e27d"/><g transform="translate(3.216 46.032)" opacity="0.2" style="mix-blend-mode:multiply;isolation:isolate"><g clip-path="url(#h)"><path d="M12.138,173.719l.045,11.312,27.9-4.882v25.894h7.25V178.88l13.422-2.348a9.549,9.549,0,0,0,4.716,1.326,6.367,6.367,0,0,0,5.137-3.078l5.511-1.06Z" transform="translate(-12.138 -173.719)" fill="#c9c9c9"/></g></g><path d="M127.442,177.719v31.264h-7.25v-30.36l1.028.808.25-.575.705.764,1.577-1.719,1.3,1.5.631-1.058.485.91Z" transform="translate(-88.343 -130.627)" fill="#88e8f2"/><path d="M127.442,219.183v5.48l-7.25-6.231v-5.486Z" transform="translate(-88.343 -156.519)" fill="#4adae5"/><path d="M127.442,206.442V208.8l-7.25-6.231v-2.349Z" transform="translate(-88.343 -147.163)" fill="#4adae5"/><path d="M44.294,86.12l-1.477-.137-6.509-.6,1.9,3.642-2.571,3.262,8.647.792,4.546.414,5.956-1.949a29.985,29.985,0,0,1-10.5-5.424" transform="translate(-26.197 -62.757)" fill="#88e8f2"/><path d="M64.2,87.788l-1.477-.137c.262,1.48,2.8,6.166,4.283,7.3l1.83.179,5.86-1.918a29.983,29.983,0,0,1-10.5-5.424" transform="translate(-46.101 -64.425)" fill="#36c6bf"/><path d="M67.909,72.639l3.379-1.106c-2.434-3.363-11.113-14.547-16.719-11.28-4.586,2.673,6.49,10.76,13.34,12.386" transform="translate(-39.315 -43.852)" fill="#4adae5"/><path d="M72.4,71.964q-.621-.67-1.215-1.284v-.007a65.876,65.876,0,0,0-5.925-5.666q-.585-.486-1.151-.9a21.2,21.2,0,0,0-2.85-1.8c-.493-.263-1-.494-1.5-.7A21.145,21.145,0,0,0,55.63,60.41l.015-.012-.018.01c-4.71,2.745,7.1,11.2,13.884,12.5l3.006-.984Z" transform="translate(-40.092 -44.394)" fill="#36c6bf"/><path d="M76.449,44.38c-.167-.424-.345-.859-.536-1.307a40.462,40.462,0,0,0-1.9-3.915,29.022,29.022,0,0,0-2.984-4.423q-.381-.46-.785-.9c-.214-.227-.426-.455-.648-.676h-.008c-.171-.171-.335-.328-.515-.492a15.1,15.1,0,0,0-2.517-1.893,42.956,42.956,0,0,1-7.922,7.861,21.148,21.148,0,0,1,4.133,1.194c.5.209,1.006.441,1.5.7a21.2,21.2,0,0,1,2.85,1.8q.566.416,1.151.9A65.872,65.872,0,0,1,74.193,48.9v.007q.593.613,1.215,1.284L75.993,50c.012-.618.09-2.745.456-5.619" transform="translate(-43.098 -22.621)" fill="#88e8f2"/><path d="M126.732,101.173l1.435-.47Z" transform="translate(-93.15 -74.018)" fill="#88e8f2"/><path d="M124.393,101.924l1.451-.475Z" transform="translate(-91.431 -74.567)" fill="#36c6bf"/><path d="M118.044,67.633c-.167-.424-.345-.859-.536-1.307a40.469,40.469,0,0,0-1.9-3.915,25.608,25.608,0,0,0,.18,9.742v.007q.593.613,1.215,1.284l.586-.192c.012-.618.09-2.745.456-5.619" transform="translate(-84.692 -45.874)" fill="#36c6bf"/><path d="M127.952,26.132c2.257-5.067,9.689-20.119,17.661-18.495a4.724,4.724,0,0,1,.723.2A39.177,39.177,0,0,1,133.5,0a19.177,19.177,0,0,0-2.068,2.3c-.235.312-.47.639-.7.966-.119.176-.237.35-.348.533a25.637,25.637,0,0,0-1.452,2.546c-.044.081-.088.169-.132.257-.194.4-.381.805-.561,1.212-3.682,8.3-4.067,18.11-4.1,19.566l4.131-1.352Z" transform="translate(-91.247)" fill="#88e8f2"/><g transform="translate(37.685 3.797)" opacity="0.5"><g clip-path="url(#i)"><path d="M152.24,20.292l-8.571-5.963a25.617,25.617,0,0,0-1.452,2.547l6.572,6.921a22.99,22.99,0,0,1,3.451-3.5" transform="translate(-142.217 -14.329)" fill="#fff"/></g></g><path d="M154.818,43.188c5.926-5.357,10.431-12.56,5.989-14.076-7.467-2.547-14.758,12.14-17.268,17.767Z" transform="translate(-105.504 -21.182)" fill="#4adae5"/><path d="M149.457,43.4c6.8-5.613,12.545-13.727,6.72-14.915-7.972-1.625-15.4,13.428-17.661,18.495Z" transform="translate(-101.812 -20.847)" fill="#36c6bf"/><g transform="translate(21.169 10.539)" opacity="0.5"><g clip-path="url(#j)"><path d="M85.866,40.45l-3.127,8.5a21.209,21.209,0,0,0-2.85-1.8l5.321-7.374h.008c.222.221.434.449.648.676" transform="translate(-79.889 -39.774)" fill="#fff"/></g></g><rect width="66.645" height="8.49" transform="matrix(0.95, -0.311, 0.311, 0.95, 0, 38.144)" fill="#f9e27d"/><g transform="translate(32.284 32.223)" opacity="0.2" style="mix-blend-mode:multiply;isolation:isolate"><g clip-path="url(#k)"><path d="M128.309,121.655l.127.406-1.225-.455-.062.624-.9-.512-.976,2.119-1.7-1.032-.278,1.2-.74-.718-.72,1.791.1.3.743-1.85.74.718.278-1.2,1.7,1.032.976-2.119.9.512.062-.624.063.023,1.6,1.656.966-.317Z" transform="translate(-121.833 -121.606)" fill="#c98844"/></g></g><g transform="translate(42.023 30.187)" opacity="0.2" style="mix-blend-mode:multiply;isolation:isolate"><g clip-path="url(#l)"><path d="M159,114.741l-.414,2.3.985-.323.164-1.218,3.119-1.082-.562-.493Z" transform="translate(-158.587 -113.922)" fill="#c98844"/></g></g><path d="M115.264,108.158l-2.337-7.436,6.9-2.216,2.061,6.576-1.225-.455-.062.624-.9-.512-.976,2.119-1.7-1.032-.278,1.2-.74-.718Z" transform="translate(-83.003 -72.404)" fill="#36c6bf"/><path d="M126,95.848l8.321,7.844.729-4.045,4.03-1-5.587-5.258Z" transform="translate(-92.61 -68.64)" fill="#88e8f2"/><g transform="translate(32.628 27.208)" opacity="0.2" style="mix-blend-mode:multiply;isolation:isolate"><g clip-path="url(#m)"><path d="M123.893,102.677l-.759.242,5.034,4.773,1.225.455-.127-.406Z" transform="translate(-123.134 -102.677)" fill="#c98844"/></g></g><path d="M205.551,163.961c-.185.269-2.414,2.5-3.348,2.154-1.632-.607-3.647-1.484-3.626-2.085a9.6,9.6,0,0,1,0-2.159c.354-1.6,3.282-2.621,5.622-1.486,1.1.533,1.568,3.262,1.351,3.577" transform="translate(-145.905 -117.531)" fill="#714d25"/><g transform="translate(56.078 45.105)" opacity="0.3" style="mix-blend-mode:multiply;isolation:isolate"><g clip-path="url(#n)"><path d="M211.948,170.217a12.188,12.188,0,0,1-.318,3.4l.22.083a1.02,1.02,0,0,0,.7-.071,8.049,8.049,0,0,0-.6-3.408" transform="translate(-211.63 -170.217)" fill="#714d25"/></g></g><g transform="translate(52.614 42.371)" opacity="0.3" style="mix-blend-mode:multiply;isolation:isolate"><g clip-path="url(#o)"><path d="M204.808,160.916a1.572,1.572,0,0,0-.572-.533c-2.34-1.135-5.268-.11-5.622,1.486a3.016,3.016,0,0,0-.058.429c2.246-1.582,6.227-1.384,6.252-1.383" transform="translate(-198.556 -159.902)" fill="#714d25"/></g></g><g transform="translate(3.216 76.833)" opacity="0.2" style="mix-blend-mode:multiply;isolation:isolate"><g clip-path="url(#p)"><rect width="63.985" height="1.524" transform="translate(0 0)" fill="#999"/></g></g></g></g></g></g><path d="M0,25.277,36,0l2.408,4.815Z" transform="matrix(0.695, 0.719, -0.719, 0.695, 91.647, 59.528)" fill="#88e8f2"/></g></g></svg>